<?xml version="1.0" ?><svg height="512" id="Layer_1" version="1.1" viewBox="0 0 512 512" width="512" xml:space="preserve" xmlns="http://www.w3.org/2000/svg" xmlns:cc="http://creativecommons.org/ns#" xmlns:dc="http://purl.org/dc/elements/1.1/" xmlns:inkscape="http://www.inkscape.org/namespaces/inkscape" xmlns:rdf="http://www.w3.org/1999/02/22-rdf-syntax-ns#" xmlns:sodipodi="http://sodipodi.sourceforge.net/DTD/sodipodi-0.dtd" xmlns:svg="http://www.w3.org/2000/svg"><defs id="defs12"/><g id="g3631"><rect height="512" id="rect2987" rx="64" ry="64" style="fill:#80b819;fill-opacity:1;fill-rule:nonzero;stroke:none" width="512" x="0" y="0"/><path d="m 126.6177,408.35115 c 30.7912,-44.37779 81.9512,-73.53335 140.0623,-73.53335 52.9022,0 100.0356,24.16889 131.3111,61.97779 35.8356,-36.14668 58.009,-85.86669 58.009,-140.7867 0,-110.46225 -89.5378,-200.00894 -200.0001,-200.00894 -110.4534,0 -200.0001,89.54669 -200.0001,200.00894 0,61.06668 27.457801,115.67114 70.6178,152.34226 z m 236.2934,-92.35113 c -2.9066,6.48444 -8.1066,7.8 -14.2,4.98666 -26.6355,-12.32 -56.28,-19.22222 -87.5378,-19.22222 -32.0889,0 -62.4666,7.27555 -89.6489,20.20445 -2.9111,1.39111 -9.3111,2 -12.1911,-6.28889 -2.88,-8.29778 1.6711,-12.99112 4.2889,-14.20001 29.6578,-13.87111 62.6622,-21.74667 97.5511,-21.74667 34.2756,0 67.2623,6.51556 95.9778,21.01334 4.5289,2.29333 8.6623,8.76889 5.76,15.25334 z m 17.0178,-51.08891 c -2.0711,2.89778 -5.2933,4.90667 -9.1244,4.90667 -1.0578,0 -2.0222,-0.34222 -2.9911,-0.61333 -32.6356,-14.42223 -68.6756,-22.52001 -106.6445,-22.52001 -37.6845,0 -73.4845,7.97334 -105.9334,22.19112 -1.1733,0.40889 -2.3822,0.76889 -3.6978,0.76889 -3.9022,0 -7.1822,-2.08 -9.24,-5.07556 l -2.16,-6.48444 c 0.044,-3.36445 1.6089,-6.27556 3.96,-8.34667 35.7512,-16.0489 75.3378,-25.0889 117.0756,-25.0889 41.72,0 81.2801,9.01778 117.0267,25.07112 2.3956,2.04 3.9289,5.04 3.9911,8.40445 l -2.2622,6.78666 z m -250.36,-80.77335 c 40.6844,-16.41778 85.0489,-25.59112 131.6,-25.59112 46.1244,0 90.0978,8.98667 130.4622,25.11556 5.4667,2.78667 9.2978,8.27112 9.2978,14.82223 0,9.28 -7.5289,16.8 -16.8,16.8 -1.2978,0 -2.5244,-0.28889 -3.7289,-0.57333 -36.8533,-14.85778 -77.0622,-23.12445 -119.2267,-23.12445 -42.1955,0 -82.44,8.27556 -119.3022,23.16001 -1.1956,0.26666 -2.3778,0.53777 -3.6445,0.53777 -9.2711,0 -16.8,-7.52 -16.8,-16.8 0,-6.11111 3.28,-11.40889 8.1423,-14.34667 z m 137.1067,216.78228 c -33.8712,0 -63.8712,16.32444 -83.0134,41.38223 22.4667,8.72889 46.7956,13.69778 72.3378,13.69778 31.6578,0 61.4711,-7.54667 88.0756,-20.64445 -19.1334,-21.11112 -46.7156,-34.43556 -77.4,-34.43556 z" id="Spotify" style="fill:#ffffff;fill-opacity:1"/></g></svg>